M48
; DRILL file {KiCad 5.1.10-88a1d61d58~90~ubuntu20.04.1} date Tue Oct 12 23:27:43 2021
; FORMAT={-:-/ absolute / inch / decimal}
; #@! TF.CreationDate,2021-10-12T23:27:43-03:00
; #@! TF.GenerationSoftware,Kicad,Pcbnew,5.1.10-88a1d61d58~90~ubuntu20.04.1
; #@! TF.FileFunction,Plated,1,2,PTH
FMAT,2
INCH
T1C0.0157
T2C0.0354
T3C0.0394
T4C0.0866
%
G90
G05
T1
X5.2362Y-3.8189
X5.4724Y-4.0354
X5.5709Y-3.9567
X5.748Y-3.6024
X5.8268Y-4.0354
X6.0827Y-3.4055
T2
X6.378Y-3.5039
X6.378Y-3.7008
X6.378Y-3.9961
X6.5748Y-3.6024
X6.5748Y-3.8976
X6.5748Y-4.0945
T3
X5.0394Y-3.6142
X5.0394Y-3.7142
X5.0394Y-3.8142
X5.0394Y-3.9142
X5.0394Y-4.0142
X5.0394Y-4.1142
X5.2331Y-4.1142
X5.2362Y-3.7189
X5.2362Y-3.8189
X5.3331Y-4.1142
X5.4331Y-3.7189
X5.4331Y-3.8189
X5.4331Y-4.1142
T4
X4.9606Y-3.3465
X4.9606Y-4.2913
X6.6929Y-3.3465
X6.6929Y-4.2913
T0
M30
