%TF.GenerationSoftware,KiCad,Pcbnew,5.1.10-88a1d61d58~90~ubuntu20.04.1*%
%TF.CreationDate,2021-10-12T23:28:00-03:00*%
%TF.ProjectId,SG3525_Rev01,53473335-3235-45f5-9265-7630312e6b69,0.0.0.1*%
%TF.SameCoordinates,Original*%
%TF.FileFunction,Copper,L2,Bot*%
%TF.FilePolarity,Positive*%
%FSLAX46Y46*%
G04 Gerber Fmt 4.6, Leading zero omitted, Abs format (unit mm)*
G04 Created by KiCad (PCBNEW 5.1.10-88a1d61d58~90~ubuntu20.04.1) date 2021-10-12 23:28:00*
%MOMM*%
%LPD*%
G01*
G04 APERTURE LIST*
%TA.AperFunction,Profile*%
%ADD10C,0.100000*%
%TD*%
%TA.AperFunction,ComponentPad*%
%ADD11C,3.800000*%
%TD*%
%TA.AperFunction,ComponentPad*%
%ADD12R,1.700000X1.700000*%
%TD*%
%TA.AperFunction,ComponentPad*%
%ADD13O,1.700000X1.700000*%
%TD*%
%TA.AperFunction,ComponentPad*%
%ADD14C,1.620000*%
%TD*%
%TA.AperFunction,ViaPad*%
%ADD15C,0.800000*%
%TD*%
%TA.AperFunction,Conductor*%
%ADD16C,0.800000*%
%TD*%
%TA.AperFunction,Conductor*%
%ADD17C,1.200000*%
%TD*%
%TA.AperFunction,Conductor*%
%ADD18C,1.000000*%
%TD*%
%TA.AperFunction,Conductor*%
%ADD19C,0.254000*%
%TD*%
%TA.AperFunction,Conductor*%
%ADD20C,0.100000*%
%TD*%
G04 APERTURE END LIST*
D10*
X173000000Y-82000000D02*
X173000000Y-112000000D01*
X123000000Y-82000000D02*
X173000000Y-82000000D01*
X123000000Y-112000000D02*
X123000000Y-82000000D01*
X173000000Y-112000000D02*
X123000000Y-112000000D01*
D11*
%TO.P,H1,1*%
%TO.N,N/C*%
X126000000Y-109000000D03*
%TD*%
%TO.P,H2,1*%
%TO.N,N/C*%
X170000000Y-109000000D03*
%TD*%
%TO.P,H3,1*%
%TO.N,N/C*%
X170000000Y-85000000D03*
%TD*%
%TO.P,H4,1*%
%TO.N,N/C*%
X126000000Y-85000000D03*
%TD*%
D12*
%TO.P,J1,1*%
%TO.N,VCC*%
X128000000Y-104500000D03*
D13*
%TO.P,J1,2*%
%TO.N,/OPA*%
X128000000Y-101960000D03*
%TO.P,J1,3*%
%TO.N,/PWM*%
X128000000Y-99420000D03*
%TO.P,J1,4*%
%TO.N,/OPB*%
X128000000Y-96880000D03*
%TO.P,J1,5*%
%TO.N,GND*%
X128000000Y-94340000D03*
%TO.P,J1,6*%
X128000000Y-91800000D03*
%TD*%
%TO.P,JP1,2*%
%TO.N,GND*%
X133000000Y-94460000D03*
D12*
%TO.P,JP1,1*%
%TO.N,/OPB*%
X133000000Y-97000000D03*
%TD*%
%TO.P,JP2,1*%
%TO.N,VCC*%
X138000000Y-104500000D03*
D13*
%TO.P,JP2,2*%
%TO.N,Net-(JP2-Pad2)*%
X135460000Y-104500000D03*
%TO.P,JP2,3*%
%TO.N,/VREF*%
X132920000Y-104500000D03*
%TD*%
D12*
%TO.P,JP3,1*%
%TO.N,/OPA*%
X138000000Y-97000000D03*
D13*
%TO.P,JP3,2*%
%TO.N,GND*%
X138000000Y-94460000D03*
%TD*%
D14*
%TO.P,RV1,1*%
%TO.N,GND*%
X167000000Y-99000000D03*
%TO.P,RV1,2*%
%TO.N,Net-(RV1-Pad2)*%
X162000000Y-101500000D03*
%TO.P,RV1,3*%
%TO.N,/VREF*%
X167000000Y-104000000D03*
%TD*%
%TO.P,RV2,3*%
%TO.N,GND*%
X162000000Y-89000000D03*
%TO.P,RV2,2*%
X167000000Y-91500000D03*
%TO.P,RV2,1*%
%TO.N,Net-(R2-Pad2)*%
X162000000Y-94000000D03*
%TD*%
D15*
%TO.N,VCC*%
X154500000Y-86500000D03*
%TO.N,/PWM*%
X139000000Y-102500000D03*
%TO.N,/OPB*%
X141500000Y-100500000D03*
X133000000Y-97000000D03*
%TO.N,Net-(U1-Pad1)*%
X146000000Y-91500000D03*
X148000000Y-102500000D03*
%TD*%
D16*
%TO.N,VCC*%
X154500000Y-109500000D02*
X154000000Y-110000000D01*
X154000000Y-110000000D02*
X142000000Y-110000000D01*
X142000000Y-110000000D02*
X138000000Y-106000000D01*
X154500000Y-86500000D02*
X154500000Y-109500000D01*
X138000000Y-106000000D02*
X138000000Y-104500000D01*
X128000000Y-104500000D02*
X128000000Y-105500000D01*
X128000000Y-105500000D02*
X129000000Y-106500000D01*
X137500000Y-106500000D02*
X138000000Y-106000000D01*
X129000000Y-106500000D02*
X137500000Y-106500000D01*
D17*
%TO.N,GND*%
X128120000Y-94460000D02*
X128000000Y-94340000D01*
X133000000Y-94460000D02*
X128120000Y-94460000D01*
X138000000Y-94460000D02*
X133000000Y-94460000D01*
X164500000Y-91500000D02*
X162000000Y-89000000D01*
X167000000Y-91500000D02*
X164500000Y-91500000D01*
D18*
X167000000Y-91500000D02*
X167000000Y-99000000D01*
D17*
X128000000Y-94340000D02*
X128000000Y-91800000D01*
D16*
%TO.N,/PWM*%
X128000000Y-99420000D02*
X131080000Y-102500000D01*
X131080000Y-102500000D02*
X139000000Y-102500000D01*
%TO.N,/OPB*%
X132880000Y-96880000D02*
X133000000Y-97000000D01*
X128000000Y-96880000D02*
X132880000Y-96880000D01*
X141500000Y-100500000D02*
X133500000Y-100500000D01*
X133500000Y-100500000D02*
X133000000Y-100000000D01*
X133000000Y-100000000D02*
X133000000Y-97000000D01*
%TO.N,Net-(U1-Pad1)*%
X147000000Y-102000000D02*
X147000000Y-91500000D01*
X147500000Y-102500000D02*
X147000000Y-102000000D01*
X147000000Y-91500000D02*
X146000000Y-91500000D01*
X148000000Y-102500000D02*
X147500000Y-102500000D01*
%TD*%
D19*
%TO.N,GND*%
X168803017Y-82760602D02*
X168389131Y-83037151D01*
X168037151Y-83389131D01*
X167760602Y-83803017D01*
X167570111Y-84262901D01*
X167473000Y-84751112D01*
X167473000Y-85248888D01*
X167570111Y-85737099D01*
X167760602Y-86196983D01*
X168037151Y-86610869D01*
X168389131Y-86962849D01*
X168803017Y-87239398D01*
X169262901Y-87429889D01*
X169751112Y-87527000D01*
X170248888Y-87527000D01*
X170737099Y-87429889D01*
X171196983Y-87239398D01*
X171610869Y-86962849D01*
X171962849Y-86610869D01*
X172239398Y-86196983D01*
X172323000Y-85995151D01*
X172323001Y-108004851D01*
X172239398Y-107803017D01*
X171962849Y-107389131D01*
X171610869Y-107037151D01*
X171196983Y-106760602D01*
X170737099Y-106570111D01*
X170248888Y-106473000D01*
X169751112Y-106473000D01*
X169262901Y-106570111D01*
X168803017Y-106760602D01*
X168389131Y-107037151D01*
X168037151Y-107389131D01*
X167760602Y-107803017D01*
X167570111Y-108262901D01*
X167473000Y-108751112D01*
X167473000Y-109248888D01*
X167570111Y-109737099D01*
X167760602Y-110196983D01*
X168037151Y-110610869D01*
X168389131Y-110962849D01*
X168803017Y-111239398D01*
X169004849Y-111323000D01*
X126995151Y-111323000D01*
X127196983Y-111239398D01*
X127610869Y-110962849D01*
X127962849Y-110610869D01*
X128239398Y-110196983D01*
X128429889Y-109737099D01*
X128527000Y-109248888D01*
X128527000Y-108751112D01*
X128429889Y-108262901D01*
X128239398Y-107803017D01*
X127962849Y-107389131D01*
X127610869Y-107037151D01*
X127196983Y-106760602D01*
X126737099Y-106570111D01*
X126248888Y-106473000D01*
X125751112Y-106473000D01*
X125262901Y-106570111D01*
X124803017Y-106760602D01*
X124389131Y-107037151D01*
X124037151Y-107389131D01*
X123760602Y-107803017D01*
X123677000Y-108004849D01*
X123677000Y-103650000D01*
X126519967Y-103650000D01*
X126519967Y-105350000D01*
X126532073Y-105472913D01*
X126567925Y-105591103D01*
X126626147Y-105700028D01*
X126704499Y-105795501D01*
X126799972Y-105873853D01*
X126908897Y-105932075D01*
X127027087Y-105967927D01*
X127088863Y-105974011D01*
X127141950Y-106073331D01*
X127270289Y-106229712D01*
X127309476Y-106261872D01*
X128238132Y-107190530D01*
X128270288Y-107229712D01*
X128309470Y-107261868D01*
X128309475Y-107261873D01*
X128426668Y-107358051D01*
X128605082Y-107453415D01*
X128798672Y-107512140D01*
X128816831Y-107513928D01*
X128949549Y-107527000D01*
X128949556Y-107527000D01*
X129000000Y-107531968D01*
X129050443Y-107527000D01*
X137449559Y-107527000D01*
X137500000Y-107531968D01*
X137550441Y-107527000D01*
X137550451Y-107527000D01*
X137701327Y-107512140D01*
X137894917Y-107453415D01*
X137964061Y-107416457D01*
X141238128Y-110690525D01*
X141270288Y-110729712D01*
X141426669Y-110858051D01*
X141605083Y-110953415D01*
X141798673Y-111012140D01*
X141949549Y-111027000D01*
X141949558Y-111027000D01*
X141999999Y-111031968D01*
X142050440Y-111027000D01*
X153949559Y-111027000D01*
X154000000Y-111031968D01*
X154050441Y-111027000D01*
X154050451Y-111027000D01*
X154201327Y-111012140D01*
X154394917Y-110953415D01*
X154573331Y-110858051D01*
X154729712Y-110729712D01*
X154761876Y-110690520D01*
X155190524Y-110261873D01*
X155229712Y-110229712D01*
X155358051Y-110073331D01*
X155453415Y-109894917D01*
X155512140Y-109701327D01*
X155527000Y-109550451D01*
X155527000Y-109550444D01*
X155531968Y-109500000D01*
X155527000Y-109449557D01*
X155527000Y-103858468D01*
X165563000Y-103858468D01*
X165563000Y-104141532D01*
X165618223Y-104419157D01*
X165726547Y-104680675D01*
X165883809Y-104916034D01*
X166083966Y-105116191D01*
X166319325Y-105273453D01*
X166580843Y-105381777D01*
X166858468Y-105437000D01*
X167141532Y-105437000D01*
X167419157Y-105381777D01*
X167680675Y-105273453D01*
X167916034Y-105116191D01*
X168116191Y-104916034D01*
X168273453Y-104680675D01*
X168381777Y-104419157D01*
X168437000Y-104141532D01*
X168437000Y-103858468D01*
X168381777Y-103580843D01*
X168273453Y-103319325D01*
X168116191Y-103083966D01*
X167916034Y-102883809D01*
X167680675Y-102726547D01*
X167419157Y-102618223D01*
X167141532Y-102563000D01*
X166858468Y-102563000D01*
X166580843Y-102618223D01*
X166319325Y-102726547D01*
X166083966Y-102883809D01*
X165883809Y-103083966D01*
X165726547Y-103319325D01*
X165618223Y-103580843D01*
X165563000Y-103858468D01*
X155527000Y-103858468D01*
X155527000Y-101358468D01*
X160563000Y-101358468D01*
X160563000Y-101641532D01*
X160618223Y-101919157D01*
X160726547Y-102180675D01*
X160883809Y-102416034D01*
X161083966Y-102616191D01*
X161319325Y-102773453D01*
X161580843Y-102881777D01*
X161858468Y-102937000D01*
X162141532Y-102937000D01*
X162419157Y-102881777D01*
X162680675Y-102773453D01*
X162916034Y-102616191D01*
X163116191Y-102416034D01*
X163273453Y-102180675D01*
X163381777Y-101919157D01*
X163437000Y-101641532D01*
X163437000Y-101358468D01*
X163381777Y-101080843D01*
X163273453Y-100819325D01*
X163116191Y-100583966D01*
X162916034Y-100383809D01*
X162680675Y-100226547D01*
X162419157Y-100118223D01*
X162141532Y-100063000D01*
X161858468Y-100063000D01*
X161580843Y-100118223D01*
X161319325Y-100226547D01*
X161083966Y-100383809D01*
X160883809Y-100583966D01*
X160726547Y-100819325D01*
X160618223Y-101080843D01*
X160563000Y-101358468D01*
X155527000Y-101358468D01*
X155527000Y-99992999D01*
X166180949Y-99992999D01*
X166253860Y-100236235D01*
X166509374Y-100358045D01*
X166783743Y-100427667D01*
X167066422Y-100442425D01*
X167346549Y-100401751D01*
X167613359Y-100307209D01*
X167746140Y-100236235D01*
X167819051Y-99992999D01*
X167000000Y-99173948D01*
X166180949Y-99992999D01*
X155527000Y-99992999D01*
X155527000Y-99066422D01*
X165557575Y-99066422D01*
X165598249Y-99346549D01*
X165692791Y-99613359D01*
X165763765Y-99746140D01*
X166007001Y-99819051D01*
X166826052Y-99000000D01*
X167173948Y-99000000D01*
X167992999Y-99819051D01*
X168236235Y-99746140D01*
X168358045Y-99490626D01*
X168427667Y-99216257D01*
X168442425Y-98933578D01*
X168401751Y-98653451D01*
X168307209Y-98386641D01*
X168236235Y-98253860D01*
X167992999Y-98180949D01*
X167173948Y-99000000D01*
X166826052Y-99000000D01*
X166007001Y-98180949D01*
X165763765Y-98253860D01*
X165641955Y-98509374D01*
X165572333Y-98783743D01*
X165557575Y-99066422D01*
X155527000Y-99066422D01*
X155527000Y-98007001D01*
X166180949Y-98007001D01*
X167000000Y-98826052D01*
X167819051Y-98007001D01*
X167746140Y-97763765D01*
X167490626Y-97641955D01*
X167216257Y-97572333D01*
X166933578Y-97557575D01*
X166653451Y-97598249D01*
X166386641Y-97692791D01*
X166253860Y-97763765D01*
X166180949Y-98007001D01*
X155527000Y-98007001D01*
X155527000Y-93858468D01*
X160563000Y-93858468D01*
X160563000Y-94141532D01*
X160618223Y-94419157D01*
X160726547Y-94680675D01*
X160883809Y-94916034D01*
X161083966Y-95116191D01*
X161319325Y-95273453D01*
X161580843Y-95381777D01*
X161858468Y-95437000D01*
X162141532Y-95437000D01*
X162419157Y-95381777D01*
X162680675Y-95273453D01*
X162916034Y-95116191D01*
X163116191Y-94916034D01*
X163273453Y-94680675D01*
X163381777Y-94419157D01*
X163437000Y-94141532D01*
X163437000Y-93858468D01*
X163381777Y-93580843D01*
X163273453Y-93319325D01*
X163116191Y-93083966D01*
X162916034Y-92883809D01*
X162680675Y-92726547D01*
X162419157Y-92618223D01*
X162141532Y-92563000D01*
X161858468Y-92563000D01*
X161580843Y-92618223D01*
X161319325Y-92726547D01*
X161083966Y-92883809D01*
X160883809Y-93083966D01*
X160726547Y-93319325D01*
X160618223Y-93580843D01*
X160563000Y-93858468D01*
X155527000Y-93858468D01*
X155527000Y-92492999D01*
X166180949Y-92492999D01*
X166253860Y-92736235D01*
X166509374Y-92858045D01*
X166783743Y-92927667D01*
X167066422Y-92942425D01*
X167346549Y-92901751D01*
X167613359Y-92807209D01*
X167746140Y-92736235D01*
X167819051Y-92492999D01*
X167000000Y-91673948D01*
X166180949Y-92492999D01*
X155527000Y-92492999D01*
X155527000Y-91566422D01*
X165557575Y-91566422D01*
X165598249Y-91846549D01*
X165692791Y-92113359D01*
X165763765Y-92246140D01*
X166007001Y-92319051D01*
X166826052Y-91500000D01*
X167173948Y-91500000D01*
X167992999Y-92319051D01*
X168236235Y-92246140D01*
X168358045Y-91990626D01*
X168427667Y-91716257D01*
X168442425Y-91433578D01*
X168401751Y-91153451D01*
X168307209Y-90886641D01*
X168236235Y-90753860D01*
X167992999Y-90680949D01*
X167173948Y-91500000D01*
X166826052Y-91500000D01*
X166007001Y-90680949D01*
X165763765Y-90753860D01*
X165641955Y-91009374D01*
X165572333Y-91283743D01*
X165557575Y-91566422D01*
X155527000Y-91566422D01*
X155527000Y-90507001D01*
X166180949Y-90507001D01*
X167000000Y-91326052D01*
X167819051Y-90507001D01*
X167746140Y-90263765D01*
X167490626Y-90141955D01*
X167216257Y-90072333D01*
X166933578Y-90057575D01*
X166653451Y-90098249D01*
X166386641Y-90192791D01*
X166253860Y-90263765D01*
X166180949Y-90507001D01*
X155527000Y-90507001D01*
X155527000Y-89992999D01*
X161180949Y-89992999D01*
X161253860Y-90236235D01*
X161509374Y-90358045D01*
X161783743Y-90427667D01*
X162066422Y-90442425D01*
X162346549Y-90401751D01*
X162613359Y-90307209D01*
X162746140Y-90236235D01*
X162819051Y-89992999D01*
X162000000Y-89173948D01*
X161180949Y-89992999D01*
X155527000Y-89992999D01*
X155527000Y-89066422D01*
X160557575Y-89066422D01*
X160598249Y-89346549D01*
X160692791Y-89613359D01*
X160763765Y-89746140D01*
X161007001Y-89819051D01*
X161826052Y-89000000D01*
X162173948Y-89000000D01*
X162992999Y-89819051D01*
X163236235Y-89746140D01*
X163358045Y-89490626D01*
X163427667Y-89216257D01*
X163442425Y-88933578D01*
X163401751Y-88653451D01*
X163307209Y-88386641D01*
X163236235Y-88253860D01*
X162992999Y-88180949D01*
X162173948Y-89000000D01*
X161826052Y-89000000D01*
X161007001Y-88180949D01*
X160763765Y-88253860D01*
X160641955Y-88509374D01*
X160572333Y-88783743D01*
X160557575Y-89066422D01*
X155527000Y-89066422D01*
X155527000Y-88007001D01*
X161180949Y-88007001D01*
X162000000Y-88826052D01*
X162819051Y-88007001D01*
X162746140Y-87763765D01*
X162490626Y-87641955D01*
X162216257Y-87572333D01*
X161933578Y-87557575D01*
X161653451Y-87598249D01*
X161386641Y-87692791D01*
X161253860Y-87763765D01*
X161180949Y-88007001D01*
X155527000Y-88007001D01*
X155527000Y-86398849D01*
X155517109Y-86349123D01*
X155512140Y-86298673D01*
X155497424Y-86250162D01*
X155487533Y-86200435D01*
X155468131Y-86153594D01*
X155453415Y-86105083D01*
X155429516Y-86060372D01*
X155410115Y-86013533D01*
X155381950Y-85971381D01*
X155358051Y-85926669D01*
X155325889Y-85887480D01*
X155297723Y-85845326D01*
X155261872Y-85809475D01*
X155229712Y-85770288D01*
X155190525Y-85738128D01*
X155154674Y-85702277D01*
X155112520Y-85674111D01*
X155073331Y-85641949D01*
X155028620Y-85618051D01*
X154986467Y-85589885D01*
X154939625Y-85570482D01*
X154894916Y-85546585D01*
X154846409Y-85531870D01*
X154799565Y-85512467D01*
X154749835Y-85502575D01*
X154701326Y-85487860D01*
X154650878Y-85482891D01*
X154601151Y-85473000D01*
X154550451Y-85473000D01*
X154500000Y-85468031D01*
X154449549Y-85473000D01*
X154398849Y-85473000D01*
X154349123Y-85482891D01*
X154298673Y-85487860D01*
X154250162Y-85502576D01*
X154200435Y-85512467D01*
X154153594Y-85531869D01*
X154105083Y-85546585D01*
X154060372Y-85570484D01*
X154013533Y-85589885D01*
X153971381Y-85618050D01*
X153926669Y-85641949D01*
X153887480Y-85674111D01*
X153845326Y-85702277D01*
X153809475Y-85738128D01*
X153770288Y-85770288D01*
X153738128Y-85809475D01*
X153702277Y-85845326D01*
X153674111Y-85887480D01*
X153641949Y-85926669D01*
X153618051Y-85971380D01*
X153589885Y-86013533D01*
X153570482Y-86060375D01*
X153546585Y-86105084D01*
X153531870Y-86153591D01*
X153512467Y-86200435D01*
X153502575Y-86250165D01*
X153487860Y-86298674D01*
X153482891Y-86349122D01*
X153473000Y-86398849D01*
X153473000Y-86449550D01*
X153473001Y-108973000D01*
X142425397Y-108973000D01*
X139269355Y-105816959D01*
X139295501Y-105795501D01*
X139373853Y-105700028D01*
X139432075Y-105591103D01*
X139467927Y-105472913D01*
X139480033Y-105350000D01*
X139480033Y-103650000D01*
X139467927Y-103527087D01*
X139438511Y-103430114D01*
X139439628Y-103429516D01*
X139486467Y-103410115D01*
X139528619Y-103381950D01*
X139573331Y-103358051D01*
X139612520Y-103325889D01*
X139654674Y-103297723D01*
X139690525Y-103261872D01*
X139729712Y-103229712D01*
X139761872Y-103190525D01*
X139797723Y-103154674D01*
X139825889Y-103112520D01*
X139858051Y-103073331D01*
X139881950Y-103028619D01*
X139910115Y-102986467D01*
X139929516Y-102939628D01*
X139953415Y-102894917D01*
X139968131Y-102846406D01*
X139987533Y-102799565D01*
X139997424Y-102749838D01*
X140012140Y-102701327D01*
X140017109Y-102650877D01*
X140027000Y-102601151D01*
X140027000Y-102550451D01*
X140031969Y-102500000D01*
X140027000Y-102449549D01*
X140027000Y-102398849D01*
X140017109Y-102349123D01*
X140012140Y-102298673D01*
X139997424Y-102250162D01*
X139987533Y-102200435D01*
X139968131Y-102153594D01*
X139953415Y-102105083D01*
X139929516Y-102060372D01*
X139910115Y-102013533D01*
X139881950Y-101971381D01*
X139858051Y-101926669D01*
X139825889Y-101887480D01*
X139797723Y-101845326D01*
X139761872Y-101809475D01*
X139729712Y-101770288D01*
X139690525Y-101738128D01*
X139654674Y-101702277D01*
X139612520Y-101674111D01*
X139573331Y-101641949D01*
X139528619Y-101618050D01*
X139486467Y-101589885D01*
X139439628Y-101570484D01*
X139394917Y-101546585D01*
X139346406Y-101531869D01*
X139334650Y-101527000D01*
X141601151Y-101527000D01*
X141650877Y-101517109D01*
X141701327Y-101512140D01*
X141749838Y-101497424D01*
X141799565Y-101487533D01*
X141846406Y-101468131D01*
X141894917Y-101453415D01*
X141939628Y-101429516D01*
X141986467Y-101410115D01*
X142028619Y-101381950D01*
X142073331Y-101358051D01*
X142112520Y-101325889D01*
X142154674Y-101297723D01*
X142190525Y-101261872D01*
X142229712Y-101229712D01*
X142261872Y-101190525D01*
X142297723Y-101154674D01*
X142325889Y-101112520D01*
X142358051Y-101073331D01*
X142381950Y-101028619D01*
X142410115Y-100986467D01*
X142429516Y-100939628D01*
X142453415Y-100894917D01*
X142468131Y-100846406D01*
X142487533Y-100799565D01*
X142497424Y-100749838D01*
X142512140Y-100701327D01*
X142517109Y-100650877D01*
X142527000Y-100601151D01*
X142527000Y-100550451D01*
X142531969Y-100500000D01*
X142527000Y-100449549D01*
X142527000Y-100398849D01*
X142517109Y-100349123D01*
X142512140Y-100298673D01*
X142497424Y-100250162D01*
X142487533Y-100200435D01*
X142468131Y-100153594D01*
X142453415Y-100105083D01*
X142429516Y-100060372D01*
X142410115Y-100013533D01*
X142381950Y-99971381D01*
X142358051Y-99926669D01*
X142325889Y-99887480D01*
X142297723Y-99845326D01*
X142261872Y-99809475D01*
X142229712Y-99770288D01*
X142190525Y-99738128D01*
X142154674Y-99702277D01*
X142112520Y-99674111D01*
X142073331Y-99641949D01*
X142028619Y-99618050D01*
X141986467Y-99589885D01*
X141939628Y-99570484D01*
X141894917Y-99546585D01*
X141846406Y-99531869D01*
X141799565Y-99512467D01*
X141749838Y-99502576D01*
X141701327Y-99487860D01*
X141650877Y-99482891D01*
X141601151Y-99473000D01*
X134027000Y-99473000D01*
X134027000Y-98451520D01*
X134091103Y-98432075D01*
X134200028Y-98373853D01*
X134295501Y-98295501D01*
X134373853Y-98200028D01*
X134432075Y-98091103D01*
X134467927Y-97972913D01*
X134480033Y-97850000D01*
X134480033Y-96150000D01*
X136519967Y-96150000D01*
X136519967Y-97850000D01*
X136532073Y-97972913D01*
X136567925Y-98091103D01*
X136626147Y-98200028D01*
X136704499Y-98295501D01*
X136799972Y-98373853D01*
X136908897Y-98432075D01*
X137027087Y-98467927D01*
X137150000Y-98480033D01*
X138850000Y-98480033D01*
X138972913Y-98467927D01*
X139091103Y-98432075D01*
X139200028Y-98373853D01*
X139295501Y-98295501D01*
X139373853Y-98200028D01*
X139432075Y-98091103D01*
X139467927Y-97972913D01*
X139480033Y-97850000D01*
X139480033Y-96150000D01*
X139467927Y-96027087D01*
X139432075Y-95908897D01*
X139373853Y-95799972D01*
X139295501Y-95704499D01*
X139200028Y-95626147D01*
X139091103Y-95567925D01*
X138997748Y-95539606D01*
X139089431Y-95457338D01*
X139263069Y-95225637D01*
X139388168Y-94964513D01*
X139434507Y-94811737D01*
X139314508Y-94583000D01*
X138123000Y-94583000D01*
X138123000Y-94603000D01*
X137877000Y-94603000D01*
X137877000Y-94583000D01*
X136685492Y-94583000D01*
X136565493Y-94811737D01*
X136611832Y-94964513D01*
X136736931Y-95225637D01*
X136910569Y-95457338D01*
X137002252Y-95539606D01*
X136908897Y-95567925D01*
X136799972Y-95626147D01*
X136704499Y-95704499D01*
X136626147Y-95799972D01*
X136567925Y-95908897D01*
X136532073Y-96027087D01*
X136519967Y-96150000D01*
X134480033Y-96150000D01*
X134467927Y-96027087D01*
X134432075Y-95908897D01*
X134373853Y-95799972D01*
X134295501Y-95704499D01*
X134200028Y-95626147D01*
X134091103Y-95567925D01*
X133997748Y-95539606D01*
X134089431Y-95457338D01*
X134263069Y-95225637D01*
X134388168Y-94964513D01*
X134434507Y-94811737D01*
X134314508Y-94583000D01*
X133123000Y-94583000D01*
X133123000Y-94603000D01*
X132877000Y-94603000D01*
X132877000Y-94583000D01*
X131685492Y-94583000D01*
X131565493Y-94811737D01*
X131611832Y-94964513D01*
X131736931Y-95225637D01*
X131910569Y-95457338D01*
X132002252Y-95539606D01*
X131908897Y-95567925D01*
X131799972Y-95626147D01*
X131704499Y-95704499D01*
X131626147Y-95799972D01*
X131597803Y-95853000D01*
X129061794Y-95853000D01*
X128941533Y-95732739D01*
X128749519Y-95604439D01*
X128873927Y-95530712D01*
X129089431Y-95337338D01*
X129263069Y-95105637D01*
X129388168Y-94844513D01*
X129434507Y-94691737D01*
X129314508Y-94463000D01*
X128123000Y-94463000D01*
X128123000Y-94483000D01*
X127877000Y-94483000D01*
X127877000Y-94463000D01*
X126685492Y-94463000D01*
X126565493Y-94691737D01*
X126611832Y-94844513D01*
X126736931Y-95105637D01*
X126910569Y-95337338D01*
X127126073Y-95530712D01*
X127250481Y-95604439D01*
X127058467Y-95732739D01*
X126852739Y-95938467D01*
X126691099Y-96180378D01*
X126579760Y-96449175D01*
X126523000Y-96734528D01*
X126523000Y-97025472D01*
X126579760Y-97310825D01*
X126691099Y-97579622D01*
X126852739Y-97821533D01*
X127058467Y-98027261D01*
X127242159Y-98150000D01*
X127058467Y-98272739D01*
X126852739Y-98478467D01*
X126691099Y-98720378D01*
X126579760Y-98989175D01*
X126523000Y-99274528D01*
X126523000Y-99565472D01*
X126579760Y-99850825D01*
X126691099Y-100119622D01*
X126852739Y-100361533D01*
X127058467Y-100567261D01*
X127242159Y-100690000D01*
X127058467Y-100812739D01*
X126852739Y-101018467D01*
X126691099Y-101260378D01*
X126579760Y-101529175D01*
X126523000Y-101814528D01*
X126523000Y-102105472D01*
X126579760Y-102390825D01*
X126691099Y-102659622D01*
X126852739Y-102901533D01*
X126993475Y-103042269D01*
X126908897Y-103067925D01*
X126799972Y-103126147D01*
X126704499Y-103204499D01*
X126626147Y-103299972D01*
X126567925Y-103408897D01*
X126532073Y-103527087D01*
X126519967Y-103650000D01*
X123677000Y-103650000D01*
X123677000Y-92151737D01*
X126565493Y-92151737D01*
X126611832Y-92304513D01*
X126736931Y-92565637D01*
X126910569Y-92797338D01*
X127126073Y-92990712D01*
X127259865Y-93070000D01*
X127126073Y-93149288D01*
X126910569Y-93342662D01*
X126736931Y-93574363D01*
X126611832Y-93835487D01*
X126565493Y-93988263D01*
X126685492Y-94217000D01*
X127877000Y-94217000D01*
X127877000Y-91923000D01*
X128123000Y-91923000D01*
X128123000Y-94217000D01*
X129314508Y-94217000D01*
X129371553Y-94108263D01*
X131565493Y-94108263D01*
X131685492Y-94337000D01*
X132877000Y-94337000D01*
X132877000Y-93144876D01*
X133123000Y-93144876D01*
X133123000Y-94337000D01*
X134314508Y-94337000D01*
X134434507Y-94108263D01*
X136565493Y-94108263D01*
X136685492Y-94337000D01*
X137877000Y-94337000D01*
X137877000Y-93144876D01*
X138123000Y-93144876D01*
X138123000Y-94337000D01*
X139314508Y-94337000D01*
X139434507Y-94108263D01*
X139388168Y-93955487D01*
X139263069Y-93694363D01*
X139089431Y-93462662D01*
X138873927Y-93269288D01*
X138624838Y-93121673D01*
X138351737Y-93025489D01*
X138123000Y-93144876D01*
X137877000Y-93144876D01*
X137648263Y-93025489D01*
X137375162Y-93121673D01*
X137126073Y-93269288D01*
X136910569Y-93462662D01*
X136736931Y-93694363D01*
X136611832Y-93955487D01*
X136565493Y-94108263D01*
X134434507Y-94108263D01*
X134388168Y-93955487D01*
X134263069Y-93694363D01*
X134089431Y-93462662D01*
X133873927Y-93269288D01*
X133624838Y-93121673D01*
X133351737Y-93025489D01*
X133123000Y-93144876D01*
X132877000Y-93144876D01*
X132648263Y-93025489D01*
X132375162Y-93121673D01*
X132126073Y-93269288D01*
X131910569Y-93462662D01*
X131736931Y-93694363D01*
X131611832Y-93955487D01*
X131565493Y-94108263D01*
X129371553Y-94108263D01*
X129434507Y-93988263D01*
X129388168Y-93835487D01*
X129263069Y-93574363D01*
X129089431Y-93342662D01*
X128873927Y-93149288D01*
X128740135Y-93070000D01*
X128873927Y-92990712D01*
X129089431Y-92797338D01*
X129263069Y-92565637D01*
X129388168Y-92304513D01*
X129434507Y-92151737D01*
X129314508Y-91923000D01*
X128123000Y-91923000D01*
X127877000Y-91923000D01*
X126685492Y-91923000D01*
X126565493Y-92151737D01*
X123677000Y-92151737D01*
X123677000Y-91448263D01*
X126565493Y-91448263D01*
X126685492Y-91677000D01*
X127877000Y-91677000D01*
X127877000Y-90484876D01*
X128123000Y-90484876D01*
X128123000Y-91677000D01*
X129314508Y-91677000D01*
X129407364Y-91500000D01*
X144968031Y-91500000D01*
X144973000Y-91550451D01*
X144973000Y-91601151D01*
X144982891Y-91650877D01*
X144987860Y-91701327D01*
X145002576Y-91749838D01*
X145012467Y-91799565D01*
X145031869Y-91846406D01*
X145046585Y-91894917D01*
X145070484Y-91939628D01*
X145089885Y-91986467D01*
X145118050Y-92028619D01*
X145141949Y-92073331D01*
X145174111Y-92112520D01*
X145202277Y-92154674D01*
X145238128Y-92190525D01*
X145270288Y-92229712D01*
X145309475Y-92261872D01*
X145345326Y-92297723D01*
X145387480Y-92325889D01*
X145426669Y-92358051D01*
X145471381Y-92381950D01*
X145513533Y-92410115D01*
X145560372Y-92429516D01*
X145605083Y-92453415D01*
X145653594Y-92468131D01*
X145700435Y-92487533D01*
X145750162Y-92497424D01*
X145798673Y-92512140D01*
X145849123Y-92517109D01*
X145898849Y-92527000D01*
X145973001Y-92527000D01*
X145973000Y-101949559D01*
X145968032Y-102000000D01*
X145973000Y-102050441D01*
X145973000Y-102050450D01*
X145987860Y-102201326D01*
X146046585Y-102394916D01*
X146141949Y-102573331D01*
X146270288Y-102729712D01*
X146309480Y-102761876D01*
X146738127Y-103190524D01*
X146770288Y-103229712D01*
X146926669Y-103358051D01*
X147105083Y-103453415D01*
X147217555Y-103487533D01*
X147298672Y-103512140D01*
X147316831Y-103513928D01*
X147449549Y-103527000D01*
X147449556Y-103527000D01*
X147500000Y-103531968D01*
X147550443Y-103527000D01*
X148101151Y-103527000D01*
X148150877Y-103517109D01*
X148201327Y-103512140D01*
X148249838Y-103497424D01*
X148299565Y-103487533D01*
X148346406Y-103468131D01*
X148394917Y-103453415D01*
X148439628Y-103429516D01*
X148486467Y-103410115D01*
X148528619Y-103381950D01*
X148573331Y-103358051D01*
X148612520Y-103325889D01*
X148654674Y-103297723D01*
X148690525Y-103261872D01*
X148729712Y-103229712D01*
X148761872Y-103190525D01*
X148797723Y-103154674D01*
X148825889Y-103112520D01*
X148858051Y-103073331D01*
X148881950Y-103028619D01*
X148910115Y-102986467D01*
X148929516Y-102939628D01*
X148953415Y-102894917D01*
X148968131Y-102846406D01*
X148987533Y-102799565D01*
X148997424Y-102749838D01*
X149012140Y-102701327D01*
X149017109Y-102650877D01*
X149027000Y-102601151D01*
X149027000Y-102550451D01*
X149031969Y-102500000D01*
X149027000Y-102449549D01*
X149027000Y-102398849D01*
X149017109Y-102349123D01*
X149012140Y-102298673D01*
X148997424Y-102250162D01*
X148987533Y-102200435D01*
X148968131Y-102153594D01*
X148953415Y-102105083D01*
X148929516Y-102060372D01*
X148910115Y-102013533D01*
X148881950Y-101971381D01*
X148858051Y-101926669D01*
X148825889Y-101887480D01*
X148797723Y-101845326D01*
X148761872Y-101809475D01*
X148729712Y-101770288D01*
X148690525Y-101738128D01*
X148654674Y-101702277D01*
X148612520Y-101674111D01*
X148573331Y-101641949D01*
X148528619Y-101618050D01*
X148486467Y-101589885D01*
X148439628Y-101570484D01*
X148394917Y-101546585D01*
X148346406Y-101531869D01*
X148299565Y-101512467D01*
X148249838Y-101502576D01*
X148201327Y-101487860D01*
X148150877Y-101482891D01*
X148101151Y-101473000D01*
X148027000Y-101473000D01*
X148027000Y-91550451D01*
X148031969Y-91500000D01*
X148012140Y-91298673D01*
X147953415Y-91105083D01*
X147858051Y-90926669D01*
X147729712Y-90770288D01*
X147573331Y-90641949D01*
X147394917Y-90546585D01*
X147201327Y-90487860D01*
X147050451Y-90473000D01*
X147000000Y-90468031D01*
X146949549Y-90473000D01*
X145898849Y-90473000D01*
X145849123Y-90482891D01*
X145798673Y-90487860D01*
X145750162Y-90502576D01*
X145700435Y-90512467D01*
X145653594Y-90531869D01*
X145605083Y-90546585D01*
X145560372Y-90570484D01*
X145513533Y-90589885D01*
X145471381Y-90618050D01*
X145426669Y-90641949D01*
X145387480Y-90674111D01*
X145345326Y-90702277D01*
X145309475Y-90738128D01*
X145270288Y-90770288D01*
X145238128Y-90809475D01*
X145202277Y-90845326D01*
X145174111Y-90887480D01*
X145141949Y-90926669D01*
X145118050Y-90971381D01*
X145089885Y-91013533D01*
X145070484Y-91060372D01*
X145046585Y-91105083D01*
X145031869Y-91153594D01*
X145012467Y-91200435D01*
X145002576Y-91250162D01*
X144987860Y-91298673D01*
X144982891Y-91349123D01*
X144973000Y-91398849D01*
X144973000Y-91449549D01*
X144968031Y-91500000D01*
X129407364Y-91500000D01*
X129434507Y-91448263D01*
X129388168Y-91295487D01*
X129263069Y-91034363D01*
X129089431Y-90802662D01*
X128873927Y-90609288D01*
X128624838Y-90461673D01*
X128351737Y-90365489D01*
X128123000Y-90484876D01*
X127877000Y-90484876D01*
X127648263Y-90365489D01*
X127375162Y-90461673D01*
X127126073Y-90609288D01*
X126910569Y-90802662D01*
X126736931Y-91034363D01*
X126611832Y-91295487D01*
X126565493Y-91448263D01*
X123677000Y-91448263D01*
X123677000Y-85995151D01*
X123760602Y-86196983D01*
X124037151Y-86610869D01*
X124389131Y-86962849D01*
X124803017Y-87239398D01*
X125262901Y-87429889D01*
X125751112Y-87527000D01*
X126248888Y-87527000D01*
X126737099Y-87429889D01*
X127196983Y-87239398D01*
X127610869Y-86962849D01*
X127962849Y-86610869D01*
X128239398Y-86196983D01*
X128429889Y-85737099D01*
X128527000Y-85248888D01*
X128527000Y-84751112D01*
X128429889Y-84262901D01*
X128239398Y-83803017D01*
X127962849Y-83389131D01*
X127610869Y-83037151D01*
X127196983Y-82760602D01*
X126995151Y-82677000D01*
X169004849Y-82677000D01*
X168803017Y-82760602D01*
%TA.AperFunction,Conductor*%
D20*
G36*
X168803017Y-82760602D02*
G01*
X168389131Y-83037151D01*
X168037151Y-83389131D01*
X167760602Y-83803017D01*
X167570111Y-84262901D01*
X167473000Y-84751112D01*
X167473000Y-85248888D01*
X167570111Y-85737099D01*
X167760602Y-86196983D01*
X168037151Y-86610869D01*
X168389131Y-86962849D01*
X168803017Y-87239398D01*
X169262901Y-87429889D01*
X169751112Y-87527000D01*
X170248888Y-87527000D01*
X170737099Y-87429889D01*
X171196983Y-87239398D01*
X171610869Y-86962849D01*
X171962849Y-86610869D01*
X172239398Y-86196983D01*
X172323000Y-85995151D01*
X172323001Y-108004851D01*
X172239398Y-107803017D01*
X171962849Y-107389131D01*
X171610869Y-107037151D01*
X171196983Y-106760602D01*
X170737099Y-106570111D01*
X170248888Y-106473000D01*
X169751112Y-106473000D01*
X169262901Y-106570111D01*
X168803017Y-106760602D01*
X168389131Y-107037151D01*
X168037151Y-107389131D01*
X167760602Y-107803017D01*
X167570111Y-108262901D01*
X167473000Y-108751112D01*
X167473000Y-109248888D01*
X167570111Y-109737099D01*
X167760602Y-110196983D01*
X168037151Y-110610869D01*
X168389131Y-110962849D01*
X168803017Y-111239398D01*
X169004849Y-111323000D01*
X126995151Y-111323000D01*
X127196983Y-111239398D01*
X127610869Y-110962849D01*
X127962849Y-110610869D01*
X128239398Y-110196983D01*
X128429889Y-109737099D01*
X128527000Y-109248888D01*
X128527000Y-108751112D01*
X128429889Y-108262901D01*
X128239398Y-107803017D01*
X127962849Y-107389131D01*
X127610869Y-107037151D01*
X127196983Y-106760602D01*
X126737099Y-106570111D01*
X126248888Y-106473000D01*
X125751112Y-106473000D01*
X125262901Y-106570111D01*
X124803017Y-106760602D01*
X124389131Y-107037151D01*
X124037151Y-107389131D01*
X123760602Y-107803017D01*
X123677000Y-108004849D01*
X123677000Y-103650000D01*
X126519967Y-103650000D01*
X126519967Y-105350000D01*
X126532073Y-105472913D01*
X126567925Y-105591103D01*
X126626147Y-105700028D01*
X126704499Y-105795501D01*
X126799972Y-105873853D01*
X126908897Y-105932075D01*
X127027087Y-105967927D01*
X127088863Y-105974011D01*
X127141950Y-106073331D01*
X127270289Y-106229712D01*
X127309476Y-106261872D01*
X128238132Y-107190530D01*
X128270288Y-107229712D01*
X128309470Y-107261868D01*
X128309475Y-107261873D01*
X128426668Y-107358051D01*
X128605082Y-107453415D01*
X128798672Y-107512140D01*
X128816831Y-107513928D01*
X128949549Y-107527000D01*
X128949556Y-107527000D01*
X129000000Y-107531968D01*
X129050443Y-107527000D01*
X137449559Y-107527000D01*
X137500000Y-107531968D01*
X137550441Y-107527000D01*
X137550451Y-107527000D01*
X137701327Y-107512140D01*
X137894917Y-107453415D01*
X137964061Y-107416457D01*
X141238128Y-110690525D01*
X141270288Y-110729712D01*
X141426669Y-110858051D01*
X141605083Y-110953415D01*
X141798673Y-111012140D01*
X141949549Y-111027000D01*
X141949558Y-111027000D01*
X141999999Y-111031968D01*
X142050440Y-111027000D01*
X153949559Y-111027000D01*
X154000000Y-111031968D01*
X154050441Y-111027000D01*
X154050451Y-111027000D01*
X154201327Y-111012140D01*
X154394917Y-110953415D01*
X154573331Y-110858051D01*
X154729712Y-110729712D01*
X154761876Y-110690520D01*
X155190524Y-110261873D01*
X155229712Y-110229712D01*
X155358051Y-110073331D01*
X155453415Y-109894917D01*
X155512140Y-109701327D01*
X155527000Y-109550451D01*
X155527000Y-109550444D01*
X155531968Y-109500000D01*
X155527000Y-109449557D01*
X155527000Y-103858468D01*
X165563000Y-103858468D01*
X165563000Y-104141532D01*
X165618223Y-104419157D01*
X165726547Y-104680675D01*
X165883809Y-104916034D01*
X166083966Y-105116191D01*
X166319325Y-105273453D01*
X166580843Y-105381777D01*
X166858468Y-105437000D01*
X167141532Y-105437000D01*
X167419157Y-105381777D01*
X167680675Y-105273453D01*
X167916034Y-105116191D01*
X168116191Y-104916034D01*
X168273453Y-104680675D01*
X168381777Y-104419157D01*
X168437000Y-104141532D01*
X168437000Y-103858468D01*
X168381777Y-103580843D01*
X168273453Y-103319325D01*
X168116191Y-103083966D01*
X167916034Y-102883809D01*
X167680675Y-102726547D01*
X167419157Y-102618223D01*
X167141532Y-102563000D01*
X166858468Y-102563000D01*
X166580843Y-102618223D01*
X166319325Y-102726547D01*
X166083966Y-102883809D01*
X165883809Y-103083966D01*
X165726547Y-103319325D01*
X165618223Y-103580843D01*
X165563000Y-103858468D01*
X155527000Y-103858468D01*
X155527000Y-101358468D01*
X160563000Y-101358468D01*
X160563000Y-101641532D01*
X160618223Y-101919157D01*
X160726547Y-102180675D01*
X160883809Y-102416034D01*
X161083966Y-102616191D01*
X161319325Y-102773453D01*
X161580843Y-102881777D01*
X161858468Y-102937000D01*
X162141532Y-102937000D01*
X162419157Y-102881777D01*
X162680675Y-102773453D01*
X162916034Y-102616191D01*
X163116191Y-102416034D01*
X163273453Y-102180675D01*
X163381777Y-101919157D01*
X163437000Y-101641532D01*
X163437000Y-101358468D01*
X163381777Y-101080843D01*
X163273453Y-100819325D01*
X163116191Y-100583966D01*
X162916034Y-100383809D01*
X162680675Y-100226547D01*
X162419157Y-100118223D01*
X162141532Y-100063000D01*
X161858468Y-100063000D01*
X161580843Y-100118223D01*
X161319325Y-100226547D01*
X161083966Y-100383809D01*
X160883809Y-100583966D01*
X160726547Y-100819325D01*
X160618223Y-101080843D01*
X160563000Y-101358468D01*
X155527000Y-101358468D01*
X155527000Y-99992999D01*
X166180949Y-99992999D01*
X166253860Y-100236235D01*
X166509374Y-100358045D01*
X166783743Y-100427667D01*
X167066422Y-100442425D01*
X167346549Y-100401751D01*
X167613359Y-100307209D01*
X167746140Y-100236235D01*
X167819051Y-99992999D01*
X167000000Y-99173948D01*
X166180949Y-99992999D01*
X155527000Y-99992999D01*
X155527000Y-99066422D01*
X165557575Y-99066422D01*
X165598249Y-99346549D01*
X165692791Y-99613359D01*
X165763765Y-99746140D01*
X166007001Y-99819051D01*
X166826052Y-99000000D01*
X167173948Y-99000000D01*
X167992999Y-99819051D01*
X168236235Y-99746140D01*
X168358045Y-99490626D01*
X168427667Y-99216257D01*
X168442425Y-98933578D01*
X168401751Y-98653451D01*
X168307209Y-98386641D01*
X168236235Y-98253860D01*
X167992999Y-98180949D01*
X167173948Y-99000000D01*
X166826052Y-99000000D01*
X166007001Y-98180949D01*
X165763765Y-98253860D01*
X165641955Y-98509374D01*
X165572333Y-98783743D01*
X165557575Y-99066422D01*
X155527000Y-99066422D01*
X155527000Y-98007001D01*
X166180949Y-98007001D01*
X167000000Y-98826052D01*
X167819051Y-98007001D01*
X167746140Y-97763765D01*
X167490626Y-97641955D01*
X167216257Y-97572333D01*
X166933578Y-97557575D01*
X166653451Y-97598249D01*
X166386641Y-97692791D01*
X166253860Y-97763765D01*
X166180949Y-98007001D01*
X155527000Y-98007001D01*
X155527000Y-93858468D01*
X160563000Y-93858468D01*
X160563000Y-94141532D01*
X160618223Y-94419157D01*
X160726547Y-94680675D01*
X160883809Y-94916034D01*
X161083966Y-95116191D01*
X161319325Y-95273453D01*
X161580843Y-95381777D01*
X161858468Y-95437000D01*
X162141532Y-95437000D01*
X162419157Y-95381777D01*
X162680675Y-95273453D01*
X162916034Y-95116191D01*
X163116191Y-94916034D01*
X163273453Y-94680675D01*
X163381777Y-94419157D01*
X163437000Y-94141532D01*
X163437000Y-93858468D01*
X163381777Y-93580843D01*
X163273453Y-93319325D01*
X163116191Y-93083966D01*
X162916034Y-92883809D01*
X162680675Y-92726547D01*
X162419157Y-92618223D01*
X162141532Y-92563000D01*
X161858468Y-92563000D01*
X161580843Y-92618223D01*
X161319325Y-92726547D01*
X161083966Y-92883809D01*
X160883809Y-93083966D01*
X160726547Y-93319325D01*
X160618223Y-93580843D01*
X160563000Y-93858468D01*
X155527000Y-93858468D01*
X155527000Y-92492999D01*
X166180949Y-92492999D01*
X166253860Y-92736235D01*
X166509374Y-92858045D01*
X166783743Y-92927667D01*
X167066422Y-92942425D01*
X167346549Y-92901751D01*
X167613359Y-92807209D01*
X167746140Y-92736235D01*
X167819051Y-92492999D01*
X167000000Y-91673948D01*
X166180949Y-92492999D01*
X155527000Y-92492999D01*
X155527000Y-91566422D01*
X165557575Y-91566422D01*
X165598249Y-91846549D01*
X165692791Y-92113359D01*
X165763765Y-92246140D01*
X166007001Y-92319051D01*
X166826052Y-91500000D01*
X167173948Y-91500000D01*
X167992999Y-92319051D01*
X168236235Y-92246140D01*
X168358045Y-91990626D01*
X168427667Y-91716257D01*
X168442425Y-91433578D01*
X168401751Y-91153451D01*
X168307209Y-90886641D01*
X168236235Y-90753860D01*
X167992999Y-90680949D01*
X167173948Y-91500000D01*
X166826052Y-91500000D01*
X166007001Y-90680949D01*
X165763765Y-90753860D01*
X165641955Y-91009374D01*
X165572333Y-91283743D01*
X165557575Y-91566422D01*
X155527000Y-91566422D01*
X155527000Y-90507001D01*
X166180949Y-90507001D01*
X167000000Y-91326052D01*
X167819051Y-90507001D01*
X167746140Y-90263765D01*
X167490626Y-90141955D01*
X167216257Y-90072333D01*
X166933578Y-90057575D01*
X166653451Y-90098249D01*
X166386641Y-90192791D01*
X166253860Y-90263765D01*
X166180949Y-90507001D01*
X155527000Y-90507001D01*
X155527000Y-89992999D01*
X161180949Y-89992999D01*
X161253860Y-90236235D01*
X161509374Y-90358045D01*
X161783743Y-90427667D01*
X162066422Y-90442425D01*
X162346549Y-90401751D01*
X162613359Y-90307209D01*
X162746140Y-90236235D01*
X162819051Y-89992999D01*
X162000000Y-89173948D01*
X161180949Y-89992999D01*
X155527000Y-89992999D01*
X155527000Y-89066422D01*
X160557575Y-89066422D01*
X160598249Y-89346549D01*
X160692791Y-89613359D01*
X160763765Y-89746140D01*
X161007001Y-89819051D01*
X161826052Y-89000000D01*
X162173948Y-89000000D01*
X162992999Y-89819051D01*
X163236235Y-89746140D01*
X163358045Y-89490626D01*
X163427667Y-89216257D01*
X163442425Y-88933578D01*
X163401751Y-88653451D01*
X163307209Y-88386641D01*
X163236235Y-88253860D01*
X162992999Y-88180949D01*
X162173948Y-89000000D01*
X161826052Y-89000000D01*
X161007001Y-88180949D01*
X160763765Y-88253860D01*
X160641955Y-88509374D01*
X160572333Y-88783743D01*
X160557575Y-89066422D01*
X155527000Y-89066422D01*
X155527000Y-88007001D01*
X161180949Y-88007001D01*
X162000000Y-88826052D01*
X162819051Y-88007001D01*
X162746140Y-87763765D01*
X162490626Y-87641955D01*
X162216257Y-87572333D01*
X161933578Y-87557575D01*
X161653451Y-87598249D01*
X161386641Y-87692791D01*
X161253860Y-87763765D01*
X161180949Y-88007001D01*
X155527000Y-88007001D01*
X155527000Y-86398849D01*
X155517109Y-86349123D01*
X155512140Y-86298673D01*
X155497424Y-86250162D01*
X155487533Y-86200435D01*
X155468131Y-86153594D01*
X155453415Y-86105083D01*
X155429516Y-86060372D01*
X155410115Y-86013533D01*
X155381950Y-85971381D01*
X155358051Y-85926669D01*
X155325889Y-85887480D01*
X155297723Y-85845326D01*
X155261872Y-85809475D01*
X155229712Y-85770288D01*
X155190525Y-85738128D01*
X155154674Y-85702277D01*
X155112520Y-85674111D01*
X155073331Y-85641949D01*
X155028620Y-85618051D01*
X154986467Y-85589885D01*
X154939625Y-85570482D01*
X154894916Y-85546585D01*
X154846409Y-85531870D01*
X154799565Y-85512467D01*
X154749835Y-85502575D01*
X154701326Y-85487860D01*
X154650878Y-85482891D01*
X154601151Y-85473000D01*
X154550451Y-85473000D01*
X154500000Y-85468031D01*
X154449549Y-85473000D01*
X154398849Y-85473000D01*
X154349123Y-85482891D01*
X154298673Y-85487860D01*
X154250162Y-85502576D01*
X154200435Y-85512467D01*
X154153594Y-85531869D01*
X154105083Y-85546585D01*
X154060372Y-85570484D01*
X154013533Y-85589885D01*
X153971381Y-85618050D01*
X153926669Y-85641949D01*
X153887480Y-85674111D01*
X153845326Y-85702277D01*
X153809475Y-85738128D01*
X153770288Y-85770288D01*
X153738128Y-85809475D01*
X153702277Y-85845326D01*
X153674111Y-85887480D01*
X153641949Y-85926669D01*
X153618051Y-85971380D01*
X153589885Y-86013533D01*
X153570482Y-86060375D01*
X153546585Y-86105084D01*
X153531870Y-86153591D01*
X153512467Y-86200435D01*
X153502575Y-86250165D01*
X153487860Y-86298674D01*
X153482891Y-86349122D01*
X153473000Y-86398849D01*
X153473000Y-86449550D01*
X153473001Y-108973000D01*
X142425397Y-108973000D01*
X139269355Y-105816959D01*
X139295501Y-105795501D01*
X139373853Y-105700028D01*
X139432075Y-105591103D01*
X139467927Y-105472913D01*
X139480033Y-105350000D01*
X139480033Y-103650000D01*
X139467927Y-103527087D01*
X139438511Y-103430114D01*
X139439628Y-103429516D01*
X139486467Y-103410115D01*
X139528619Y-103381950D01*
X139573331Y-103358051D01*
X139612520Y-103325889D01*
X139654674Y-103297723D01*
X139690525Y-103261872D01*
X139729712Y-103229712D01*
X139761872Y-103190525D01*
X139797723Y-103154674D01*
X139825889Y-103112520D01*
X139858051Y-103073331D01*
X139881950Y-103028619D01*
X139910115Y-102986467D01*
X139929516Y-102939628D01*
X139953415Y-102894917D01*
X139968131Y-102846406D01*
X139987533Y-102799565D01*
X139997424Y-102749838D01*
X140012140Y-102701327D01*
X140017109Y-102650877D01*
X140027000Y-102601151D01*
X140027000Y-102550451D01*
X140031969Y-102500000D01*
X140027000Y-102449549D01*
X140027000Y-102398849D01*
X140017109Y-102349123D01*
X140012140Y-102298673D01*
X139997424Y-102250162D01*
X139987533Y-102200435D01*
X139968131Y-102153594D01*
X139953415Y-102105083D01*
X139929516Y-102060372D01*
X139910115Y-102013533D01*
X139881950Y-101971381D01*
X139858051Y-101926669D01*
X139825889Y-101887480D01*
X139797723Y-101845326D01*
X139761872Y-101809475D01*
X139729712Y-101770288D01*
X139690525Y-101738128D01*
X139654674Y-101702277D01*
X139612520Y-101674111D01*
X139573331Y-101641949D01*
X139528619Y-101618050D01*
X139486467Y-101589885D01*
X139439628Y-101570484D01*
X139394917Y-101546585D01*
X139346406Y-101531869D01*
X139334650Y-101527000D01*
X141601151Y-101527000D01*
X141650877Y-101517109D01*
X141701327Y-101512140D01*
X141749838Y-101497424D01*
X141799565Y-101487533D01*
X141846406Y-101468131D01*
X141894917Y-101453415D01*
X141939628Y-101429516D01*
X141986467Y-101410115D01*
X142028619Y-101381950D01*
X142073331Y-101358051D01*
X142112520Y-101325889D01*
X142154674Y-101297723D01*
X142190525Y-101261872D01*
X142229712Y-101229712D01*
X142261872Y-101190525D01*
X142297723Y-101154674D01*
X142325889Y-101112520D01*
X142358051Y-101073331D01*
X142381950Y-101028619D01*
X142410115Y-100986467D01*
X142429516Y-100939628D01*
X142453415Y-100894917D01*
X142468131Y-100846406D01*
X142487533Y-100799565D01*
X142497424Y-100749838D01*
X142512140Y-100701327D01*
X142517109Y-100650877D01*
X142527000Y-100601151D01*
X142527000Y-100550451D01*
X142531969Y-100500000D01*
X142527000Y-100449549D01*
X142527000Y-100398849D01*
X142517109Y-100349123D01*
X142512140Y-100298673D01*
X142497424Y-100250162D01*
X142487533Y-100200435D01*
X142468131Y-100153594D01*
X142453415Y-100105083D01*
X142429516Y-100060372D01*
X142410115Y-100013533D01*
X142381950Y-99971381D01*
X142358051Y-99926669D01*
X142325889Y-99887480D01*
X142297723Y-99845326D01*
X142261872Y-99809475D01*
X142229712Y-99770288D01*
X142190525Y-99738128D01*
X142154674Y-99702277D01*
X142112520Y-99674111D01*
X142073331Y-99641949D01*
X142028619Y-99618050D01*
X141986467Y-99589885D01*
X141939628Y-99570484D01*
X141894917Y-99546585D01*
X141846406Y-99531869D01*
X141799565Y-99512467D01*
X141749838Y-99502576D01*
X141701327Y-99487860D01*
X141650877Y-99482891D01*
X141601151Y-99473000D01*
X134027000Y-99473000D01*
X134027000Y-98451520D01*
X134091103Y-98432075D01*
X134200028Y-98373853D01*
X134295501Y-98295501D01*
X134373853Y-98200028D01*
X134432075Y-98091103D01*
X134467927Y-97972913D01*
X134480033Y-97850000D01*
X134480033Y-96150000D01*
X136519967Y-96150000D01*
X136519967Y-97850000D01*
X136532073Y-97972913D01*
X136567925Y-98091103D01*
X136626147Y-98200028D01*
X136704499Y-98295501D01*
X136799972Y-98373853D01*
X136908897Y-98432075D01*
X137027087Y-98467927D01*
X137150000Y-98480033D01*
X138850000Y-98480033D01*
X138972913Y-98467927D01*
X139091103Y-98432075D01*
X139200028Y-98373853D01*
X139295501Y-98295501D01*
X139373853Y-98200028D01*
X139432075Y-98091103D01*
X139467927Y-97972913D01*
X139480033Y-97850000D01*
X139480033Y-96150000D01*
X139467927Y-96027087D01*
X139432075Y-95908897D01*
X139373853Y-95799972D01*
X139295501Y-95704499D01*
X139200028Y-95626147D01*
X139091103Y-95567925D01*
X138997748Y-95539606D01*
X139089431Y-95457338D01*
X139263069Y-95225637D01*
X139388168Y-94964513D01*
X139434507Y-94811737D01*
X139314508Y-94583000D01*
X138123000Y-94583000D01*
X138123000Y-94603000D01*
X137877000Y-94603000D01*
X137877000Y-94583000D01*
X136685492Y-94583000D01*
X136565493Y-94811737D01*
X136611832Y-94964513D01*
X136736931Y-95225637D01*
X136910569Y-95457338D01*
X137002252Y-95539606D01*
X136908897Y-95567925D01*
X136799972Y-95626147D01*
X136704499Y-95704499D01*
X136626147Y-95799972D01*
X136567925Y-95908897D01*
X136532073Y-96027087D01*
X136519967Y-96150000D01*
X134480033Y-96150000D01*
X134467927Y-96027087D01*
X134432075Y-95908897D01*
X134373853Y-95799972D01*
X134295501Y-95704499D01*
X134200028Y-95626147D01*
X134091103Y-95567925D01*
X133997748Y-95539606D01*
X134089431Y-95457338D01*
X134263069Y-95225637D01*
X134388168Y-94964513D01*
X134434507Y-94811737D01*
X134314508Y-94583000D01*
X133123000Y-94583000D01*
X133123000Y-94603000D01*
X132877000Y-94603000D01*
X132877000Y-94583000D01*
X131685492Y-94583000D01*
X131565493Y-94811737D01*
X131611832Y-94964513D01*
X131736931Y-95225637D01*
X131910569Y-95457338D01*
X132002252Y-95539606D01*
X131908897Y-95567925D01*
X131799972Y-95626147D01*
X131704499Y-95704499D01*
X131626147Y-95799972D01*
X131597803Y-95853000D01*
X129061794Y-95853000D01*
X128941533Y-95732739D01*
X128749519Y-95604439D01*
X128873927Y-95530712D01*
X129089431Y-95337338D01*
X129263069Y-95105637D01*
X129388168Y-94844513D01*
X129434507Y-94691737D01*
X129314508Y-94463000D01*
X128123000Y-94463000D01*
X128123000Y-94483000D01*
X127877000Y-94483000D01*
X127877000Y-94463000D01*
X126685492Y-94463000D01*
X126565493Y-94691737D01*
X126611832Y-94844513D01*
X126736931Y-95105637D01*
X126910569Y-95337338D01*
X127126073Y-95530712D01*
X127250481Y-95604439D01*
X127058467Y-95732739D01*
X126852739Y-95938467D01*
X126691099Y-96180378D01*
X126579760Y-96449175D01*
X126523000Y-96734528D01*
X126523000Y-97025472D01*
X126579760Y-97310825D01*
X126691099Y-97579622D01*
X126852739Y-97821533D01*
X127058467Y-98027261D01*
X127242159Y-98150000D01*
X127058467Y-98272739D01*
X126852739Y-98478467D01*
X126691099Y-98720378D01*
X126579760Y-98989175D01*
X126523000Y-99274528D01*
X126523000Y-99565472D01*
X126579760Y-99850825D01*
X126691099Y-100119622D01*
X126852739Y-100361533D01*
X127058467Y-100567261D01*
X127242159Y-100690000D01*
X127058467Y-100812739D01*
X126852739Y-101018467D01*
X126691099Y-101260378D01*
X126579760Y-101529175D01*
X126523000Y-101814528D01*
X126523000Y-102105472D01*
X126579760Y-102390825D01*
X126691099Y-102659622D01*
X126852739Y-102901533D01*
X126993475Y-103042269D01*
X126908897Y-103067925D01*
X126799972Y-103126147D01*
X126704499Y-103204499D01*
X126626147Y-103299972D01*
X126567925Y-103408897D01*
X126532073Y-103527087D01*
X126519967Y-103650000D01*
X123677000Y-103650000D01*
X123677000Y-92151737D01*
X126565493Y-92151737D01*
X126611832Y-92304513D01*
X126736931Y-92565637D01*
X126910569Y-92797338D01*
X127126073Y-92990712D01*
X127259865Y-93070000D01*
X127126073Y-93149288D01*
X126910569Y-93342662D01*
X126736931Y-93574363D01*
X126611832Y-93835487D01*
X126565493Y-93988263D01*
X126685492Y-94217000D01*
X127877000Y-94217000D01*
X127877000Y-91923000D01*
X128123000Y-91923000D01*
X128123000Y-94217000D01*
X129314508Y-94217000D01*
X129371553Y-94108263D01*
X131565493Y-94108263D01*
X131685492Y-94337000D01*
X132877000Y-94337000D01*
X132877000Y-93144876D01*
X133123000Y-93144876D01*
X133123000Y-94337000D01*
X134314508Y-94337000D01*
X134434507Y-94108263D01*
X136565493Y-94108263D01*
X136685492Y-94337000D01*
X137877000Y-94337000D01*
X137877000Y-93144876D01*
X138123000Y-93144876D01*
X138123000Y-94337000D01*
X139314508Y-94337000D01*
X139434507Y-94108263D01*
X139388168Y-93955487D01*
X139263069Y-93694363D01*
X139089431Y-93462662D01*
X138873927Y-93269288D01*
X138624838Y-93121673D01*
X138351737Y-93025489D01*
X138123000Y-93144876D01*
X137877000Y-93144876D01*
X137648263Y-93025489D01*
X137375162Y-93121673D01*
X137126073Y-93269288D01*
X136910569Y-93462662D01*
X136736931Y-93694363D01*
X136611832Y-93955487D01*
X136565493Y-94108263D01*
X134434507Y-94108263D01*
X134388168Y-93955487D01*
X134263069Y-93694363D01*
X134089431Y-93462662D01*
X133873927Y-93269288D01*
X133624838Y-93121673D01*
X133351737Y-93025489D01*
X133123000Y-93144876D01*
X132877000Y-93144876D01*
X132648263Y-93025489D01*
X132375162Y-93121673D01*
X132126073Y-93269288D01*
X131910569Y-93462662D01*
X131736931Y-93694363D01*
X131611832Y-93955487D01*
X131565493Y-94108263D01*
X129371553Y-94108263D01*
X129434507Y-93988263D01*
X129388168Y-93835487D01*
X129263069Y-93574363D01*
X129089431Y-93342662D01*
X128873927Y-93149288D01*
X128740135Y-93070000D01*
X128873927Y-92990712D01*
X129089431Y-92797338D01*
X129263069Y-92565637D01*
X129388168Y-92304513D01*
X129434507Y-92151737D01*
X129314508Y-91923000D01*
X128123000Y-91923000D01*
X127877000Y-91923000D01*
X126685492Y-91923000D01*
X126565493Y-92151737D01*
X123677000Y-92151737D01*
X123677000Y-91448263D01*
X126565493Y-91448263D01*
X126685492Y-91677000D01*
X127877000Y-91677000D01*
X127877000Y-90484876D01*
X128123000Y-90484876D01*
X128123000Y-91677000D01*
X129314508Y-91677000D01*
X129407364Y-91500000D01*
X144968031Y-91500000D01*
X144973000Y-91550451D01*
X144973000Y-91601151D01*
X144982891Y-91650877D01*
X144987860Y-91701327D01*
X145002576Y-91749838D01*
X145012467Y-91799565D01*
X145031869Y-91846406D01*
X145046585Y-91894917D01*
X145070484Y-91939628D01*
X145089885Y-91986467D01*
X145118050Y-92028619D01*
X145141949Y-92073331D01*
X145174111Y-92112520D01*
X145202277Y-92154674D01*
X145238128Y-92190525D01*
X145270288Y-92229712D01*
X145309475Y-92261872D01*
X145345326Y-92297723D01*
X145387480Y-92325889D01*
X145426669Y-92358051D01*
X145471381Y-92381950D01*
X145513533Y-92410115D01*
X145560372Y-92429516D01*
X145605083Y-92453415D01*
X145653594Y-92468131D01*
X145700435Y-92487533D01*
X145750162Y-92497424D01*
X145798673Y-92512140D01*
X145849123Y-92517109D01*
X145898849Y-92527000D01*
X145973001Y-92527000D01*
X145973000Y-101949559D01*
X145968032Y-102000000D01*
X145973000Y-102050441D01*
X145973000Y-102050450D01*
X145987860Y-102201326D01*
X146046585Y-102394916D01*
X146141949Y-102573331D01*
X146270288Y-102729712D01*
X146309480Y-102761876D01*
X146738127Y-103190524D01*
X146770288Y-103229712D01*
X146926669Y-103358051D01*
X147105083Y-103453415D01*
X147217555Y-103487533D01*
X147298672Y-103512140D01*
X147316831Y-103513928D01*
X147449549Y-103527000D01*
X147449556Y-103527000D01*
X147500000Y-103531968D01*
X147550443Y-103527000D01*
X148101151Y-103527000D01*
X148150877Y-103517109D01*
X148201327Y-103512140D01*
X148249838Y-103497424D01*
X148299565Y-103487533D01*
X148346406Y-103468131D01*
X148394917Y-103453415D01*
X148439628Y-103429516D01*
X148486467Y-103410115D01*
X148528619Y-103381950D01*
X148573331Y-103358051D01*
X148612520Y-103325889D01*
X148654674Y-103297723D01*
X148690525Y-103261872D01*
X148729712Y-103229712D01*
X148761872Y-103190525D01*
X148797723Y-103154674D01*
X148825889Y-103112520D01*
X148858051Y-103073331D01*
X148881950Y-103028619D01*
X148910115Y-102986467D01*
X148929516Y-102939628D01*
X148953415Y-102894917D01*
X148968131Y-102846406D01*
X148987533Y-102799565D01*
X148997424Y-102749838D01*
X149012140Y-102701327D01*
X149017109Y-102650877D01*
X149027000Y-102601151D01*
X149027000Y-102550451D01*
X149031969Y-102500000D01*
X149027000Y-102449549D01*
X149027000Y-102398849D01*
X149017109Y-102349123D01*
X149012140Y-102298673D01*
X148997424Y-102250162D01*
X148987533Y-102200435D01*
X148968131Y-102153594D01*
X148953415Y-102105083D01*
X148929516Y-102060372D01*
X148910115Y-102013533D01*
X148881950Y-101971381D01*
X148858051Y-101926669D01*
X148825889Y-101887480D01*
X148797723Y-101845326D01*
X148761872Y-101809475D01*
X148729712Y-101770288D01*
X148690525Y-101738128D01*
X148654674Y-101702277D01*
X148612520Y-101674111D01*
X148573331Y-101641949D01*
X148528619Y-101618050D01*
X148486467Y-101589885D01*
X148439628Y-101570484D01*
X148394917Y-101546585D01*
X148346406Y-101531869D01*
X148299565Y-101512467D01*
X148249838Y-101502576D01*
X148201327Y-101487860D01*
X148150877Y-101482891D01*
X148101151Y-101473000D01*
X148027000Y-101473000D01*
X148027000Y-91550451D01*
X148031969Y-91500000D01*
X148012140Y-91298673D01*
X147953415Y-91105083D01*
X147858051Y-90926669D01*
X147729712Y-90770288D01*
X147573331Y-90641949D01*
X147394917Y-90546585D01*
X147201327Y-90487860D01*
X147050451Y-90473000D01*
X147000000Y-90468031D01*
X146949549Y-90473000D01*
X145898849Y-90473000D01*
X145849123Y-90482891D01*
X145798673Y-90487860D01*
X145750162Y-90502576D01*
X145700435Y-90512467D01*
X145653594Y-90531869D01*
X145605083Y-90546585D01*
X145560372Y-90570484D01*
X145513533Y-90589885D01*
X145471381Y-90618050D01*
X145426669Y-90641949D01*
X145387480Y-90674111D01*
X145345326Y-90702277D01*
X145309475Y-90738128D01*
X145270288Y-90770288D01*
X145238128Y-90809475D01*
X145202277Y-90845326D01*
X145174111Y-90887480D01*
X145141949Y-90926669D01*
X145118050Y-90971381D01*
X145089885Y-91013533D01*
X145070484Y-91060372D01*
X145046585Y-91105083D01*
X145031869Y-91153594D01*
X145012467Y-91200435D01*
X145002576Y-91250162D01*
X144987860Y-91298673D01*
X144982891Y-91349123D01*
X144973000Y-91398849D01*
X144973000Y-91449549D01*
X144968031Y-91500000D01*
X129407364Y-91500000D01*
X129434507Y-91448263D01*
X129388168Y-91295487D01*
X129263069Y-91034363D01*
X129089431Y-90802662D01*
X128873927Y-90609288D01*
X128624838Y-90461673D01*
X128351737Y-90365489D01*
X128123000Y-90484876D01*
X127877000Y-90484876D01*
X127648263Y-90365489D01*
X127375162Y-90461673D01*
X127126073Y-90609288D01*
X126910569Y-90802662D01*
X126736931Y-91034363D01*
X126611832Y-91295487D01*
X126565493Y-91448263D01*
X123677000Y-91448263D01*
X123677000Y-85995151D01*
X123760602Y-86196983D01*
X124037151Y-86610869D01*
X124389131Y-86962849D01*
X124803017Y-87239398D01*
X125262901Y-87429889D01*
X125751112Y-87527000D01*
X126248888Y-87527000D01*
X126737099Y-87429889D01*
X127196983Y-87239398D01*
X127610869Y-86962849D01*
X127962849Y-86610869D01*
X128239398Y-86196983D01*
X128429889Y-85737099D01*
X128527000Y-85248888D01*
X128527000Y-84751112D01*
X128429889Y-84262901D01*
X128239398Y-83803017D01*
X127962849Y-83389131D01*
X127610869Y-83037151D01*
X127196983Y-82760602D01*
X126995151Y-82677000D01*
X169004849Y-82677000D01*
X168803017Y-82760602D01*
G37*
%TD.AperFunction*%
%TD*%
M02*
