%TF.GenerationSoftware,KiCad,Pcbnew,5.1.10-88a1d61d58~90~ubuntu20.04.1*%
%TF.CreationDate,2021-10-12T23:28:01-03:00*%
%TF.ProjectId,SG3525_Rev01,53473335-3235-45f5-9265-7630312e6b69,0.0.0.1*%
%TF.SameCoordinates,Original*%
%TF.FileFunction,Soldermask,Top*%
%TF.FilePolarity,Negative*%
%FSLAX46Y46*%
G04 Gerber Fmt 4.6, Leading zero omitted, Abs format (unit mm)*
G04 Created by KiCad (PCBNEW 5.1.10-88a1d61d58~90~ubuntu20.04.1) date 2021-10-12 23:28:01*
%MOMM*%
%LPD*%
G01*
G04 APERTURE LIST*
%TA.AperFunction,Profile*%
%ADD10C,0.100000*%
%TD*%
%ADD11C,2.000000*%
%ADD12C,3.800000*%
%ADD13R,1.700000X1.700000*%
%ADD14O,1.700000X1.700000*%
%ADD15C,1.620000*%
%ADD16R,1.300000X0.800000*%
G04 APERTURE END LIST*
D10*
X173000000Y-82000000D02*
X173000000Y-112000000D01*
X123000000Y-82000000D02*
X173000000Y-82000000D01*
X123000000Y-112000000D02*
X123000000Y-82000000D01*
X173000000Y-112000000D02*
X123000000Y-112000000D01*
%TO.C,C1*%
G36*
G01*
X140037500Y-86724900D02*
X140037500Y-87275100D01*
G75*
G02*
X139787600Y-87525000I-249900J0D01*
G01*
X139212400Y-87525000D01*
G75*
G02*
X138962500Y-87275100I0J249900D01*
G01*
X138962500Y-86724900D01*
G75*
G02*
X139212400Y-86475000I249900J0D01*
G01*
X139787600Y-86475000D01*
G75*
G02*
X140037500Y-86724900I0J-249900D01*
G01*
G37*
G36*
G01*
X138612500Y-86724900D02*
X138612500Y-87275100D01*
G75*
G02*
X138362600Y-87525000I-249900J0D01*
G01*
X137787400Y-87525000D01*
G75*
G02*
X137537500Y-87275100I0J249900D01*
G01*
X137537500Y-86724900D01*
G75*
G02*
X137787400Y-86475000I249900J0D01*
G01*
X138362600Y-86475000D01*
G75*
G02*
X138612500Y-86724900I0J-249900D01*
G01*
G37*
%TD*%
%TO.C,C2*%
G36*
G01*
X148537500Y-89724999D02*
X148537500Y-90275001D01*
G75*
G02*
X148287501Y-90525000I-249999J0D01*
G01*
X147712499Y-90525000D01*
G75*
G02*
X147462500Y-90275001I0J249999D01*
G01*
X147462500Y-89724999D01*
G75*
G02*
X147712499Y-89475000I249999J0D01*
G01*
X148287501Y-89475000D01*
G75*
G02*
X148537500Y-89724999I0J-249999D01*
G01*
G37*
G36*
G01*
X149962500Y-89724999D02*
X149962500Y-90275001D01*
G75*
G02*
X149712501Y-90525000I-249999J0D01*
G01*
X149137499Y-90525000D01*
G75*
G02*
X148887500Y-90275001I0J249999D01*
G01*
X148887500Y-89724999D01*
G75*
G02*
X149137499Y-89475000I249999J0D01*
G01*
X149712501Y-89475000D01*
G75*
G02*
X149962500Y-89724999I0J-249999D01*
G01*
G37*
%TD*%
%TO.C,C3*%
G36*
G01*
X153275001Y-91862500D02*
X152724999Y-91862500D01*
G75*
G02*
X152475000Y-91612501I0J249999D01*
G01*
X152475000Y-91037499D01*
G75*
G02*
X152724999Y-90787500I249999J0D01*
G01*
X153275001Y-90787500D01*
G75*
G02*
X153525000Y-91037499I0J-249999D01*
G01*
X153525000Y-91612501D01*
G75*
G02*
X153275001Y-91862500I-249999J0D01*
G01*
G37*
G36*
G01*
X153275001Y-90437500D02*
X152724999Y-90437500D01*
G75*
G02*
X152475000Y-90187501I0J249999D01*
G01*
X152475000Y-89612499D01*
G75*
G02*
X152724999Y-89362500I249999J0D01*
G01*
X153275001Y-89362500D01*
G75*
G02*
X153525000Y-89612499I0J-249999D01*
G01*
X153525000Y-90187501D01*
G75*
G02*
X153275001Y-90437500I-249999J0D01*
G01*
G37*
%TD*%
%TO.C,D1*%
G36*
G01*
X137512500Y-89956250D02*
X137512500Y-89043750D01*
G75*
G02*
X137756250Y-88800000I243750J0D01*
G01*
X138243750Y-88800000D01*
G75*
G02*
X138487500Y-89043750I0J-243750D01*
G01*
X138487500Y-89956250D01*
G75*
G02*
X138243750Y-90200000I-243750J0D01*
G01*
X137756250Y-90200000D01*
G75*
G02*
X137512500Y-89956250I0J243750D01*
G01*
G37*
G36*
G01*
X139387500Y-89956250D02*
X139387500Y-89043750D01*
G75*
G02*
X139631250Y-88800000I243750J0D01*
G01*
X140118750Y-88800000D01*
G75*
G02*
X140362500Y-89043750I0J-243750D01*
G01*
X140362500Y-89956250D01*
G75*
G02*
X140118750Y-90200000I-243750J0D01*
G01*
X139631250Y-90200000D01*
G75*
G02*
X139387500Y-89956250I0J243750D01*
G01*
G37*
%TD*%
D11*
%TO.C,FID1*%
X148000000Y-84000000D03*
%TD*%
%TO.C,FID2*%
X130500000Y-108500000D03*
%TD*%
%TO.C,FID3*%
X165500000Y-108500000D03*
%TD*%
D12*
%TO.C,H1*%
X126000000Y-109000000D03*
%TD*%
%TO.C,H2*%
X170000000Y-109000000D03*
%TD*%
%TO.C,H3*%
X170000000Y-85000000D03*
%TD*%
%TO.C,H4*%
X126000000Y-85000000D03*
%TD*%
D13*
%TO.C,J1*%
X128000000Y-104500000D03*
D14*
X128000000Y-101960000D03*
X128000000Y-99420000D03*
X128000000Y-96880000D03*
X128000000Y-94340000D03*
X128000000Y-91800000D03*
%TD*%
%TO.C,JP1*%
X133000000Y-94460000D03*
D13*
X133000000Y-97000000D03*
%TD*%
%TO.C,JP2*%
X138000000Y-104500000D03*
D14*
X135460000Y-104500000D03*
X132920000Y-104500000D03*
%TD*%
D13*
%TO.C,JP3*%
X138000000Y-97000000D03*
D14*
X138000000Y-94460000D03*
%TD*%
%TO.C,R1*%
G36*
G01*
X143049999Y-87162500D02*
X143950001Y-87162500D01*
G75*
G02*
X144200000Y-87412499I0J-249999D01*
G01*
X144200000Y-87937501D01*
G75*
G02*
X143950001Y-88187500I-249999J0D01*
G01*
X143049999Y-88187500D01*
G75*
G02*
X142800000Y-87937501I0J249999D01*
G01*
X142800000Y-87412499D01*
G75*
G02*
X143049999Y-87162500I249999J0D01*
G01*
G37*
G36*
G01*
X143049999Y-88987500D02*
X143950001Y-88987500D01*
G75*
G02*
X144200000Y-89237499I0J-249999D01*
G01*
X144200000Y-89762501D01*
G75*
G02*
X143950001Y-90012500I-249999J0D01*
G01*
X143049999Y-90012500D01*
G75*
G02*
X142800000Y-89762501I0J249999D01*
G01*
X142800000Y-89237499D01*
G75*
G02*
X143049999Y-88987500I249999J0D01*
G01*
G37*
%TD*%
%TO.C,R2*%
G36*
G01*
X153162500Y-97450001D02*
X153162500Y-96549999D01*
G75*
G02*
X153412499Y-96300000I249999J0D01*
G01*
X153937501Y-96300000D01*
G75*
G02*
X154187500Y-96549999I0J-249999D01*
G01*
X154187500Y-97450001D01*
G75*
G02*
X153937501Y-97700000I-249999J0D01*
G01*
X153412499Y-97700000D01*
G75*
G02*
X153162500Y-97450001I0J249999D01*
G01*
G37*
G36*
G01*
X154987500Y-97450001D02*
X154987500Y-96549999D01*
G75*
G02*
X155237499Y-96300000I249999J0D01*
G01*
X155762501Y-96300000D01*
G75*
G02*
X156012500Y-96549999I0J-249999D01*
G01*
X156012500Y-97450001D01*
G75*
G02*
X155762501Y-97700000I-249999J0D01*
G01*
X155237499Y-97700000D01*
G75*
G02*
X154987500Y-97450001I0J249999D01*
G01*
G37*
%TD*%
%TO.C,R3*%
G36*
G01*
X137600000Y-100549999D02*
X137600000Y-101450001D01*
G75*
G02*
X137350001Y-101700000I-249999J0D01*
G01*
X136824999Y-101700000D01*
G75*
G02*
X136575000Y-101450001I0J249999D01*
G01*
X136575000Y-100549999D01*
G75*
G02*
X136824999Y-100300000I249999J0D01*
G01*
X137350001Y-100300000D01*
G75*
G02*
X137600000Y-100549999I0J-249999D01*
G01*
G37*
G36*
G01*
X139425000Y-100549999D02*
X139425000Y-101450001D01*
G75*
G02*
X139175001Y-101700000I-249999J0D01*
G01*
X138649999Y-101700000D01*
G75*
G02*
X138400000Y-101450001I0J249999D01*
G01*
X138400000Y-100549999D01*
G75*
G02*
X138649999Y-100300000I249999J0D01*
G01*
X139175001Y-100300000D01*
G75*
G02*
X139425000Y-100549999I0J-249999D01*
G01*
G37*
%TD*%
D15*
%TO.C,RV1*%
X167000000Y-99000000D03*
X162000000Y-101500000D03*
X167000000Y-104000000D03*
%TD*%
%TO.C,RV2*%
X162000000Y-89000000D03*
X167000000Y-91500000D03*
X162000000Y-94000000D03*
%TD*%
D16*
%TO.C,U1*%
X144850000Y-102390000D03*
X144850000Y-101110000D03*
X144850000Y-99850000D03*
X144850000Y-98580000D03*
X144850000Y-97300000D03*
X144850000Y-96030000D03*
X144850000Y-94770000D03*
X144850000Y-93490000D03*
X151150000Y-93490000D03*
X151150000Y-94770000D03*
X151150000Y-96030000D03*
X151150000Y-97300000D03*
X151150000Y-98580000D03*
X151150000Y-99850000D03*
X151150000Y-101110000D03*
X151150000Y-102390000D03*
%TD*%
M02*
